<svg xmlns="http://www.w3.org/2000/svg" viewBox="0 0 270.031 278.273">
  <defs>
    <clipPath id="tivero-dark-body-clip">
      <path d="M178.471 120.573C178.402 166.089 178.21 211.605 178.342 257.121C178.379 269.505 177.573 273.907 161.058 273.966C141.475 274.035 122.003 274.047 102.463 274.035C93.014 274.029 90.1007 271.265 90.0727 261.781C89.9993 236.467 89.6047 211.115 89.9593 185.806C89.994 183.278 89.9633 180.238 89.9593 179.025V178.858C89.4073 178.891 85.5167 179.21 83.0113 179.442C82.6247 179.478 82.2367 179.514 81.85 179.55C59.4913 181.615 37.0953 183.285 14.7207 185.183C5.10866 185.998 2.26999 183.51 2.26333 173.797C2.25133 152.703 2.25399 131.607 2.26333 110.514C2.26733 100.573 5.10467 97.3248 15.318 95.6635C38.2927 91.9261 140.458 75.0248 165.617 70.7928C174.633 69.2768 178.327 72.0875 178.378 81.4195C178.449 94.4702 178.443 107.522 178.471 120.573Z"/>
    </clipPath>
  </defs>

  <!-- Top layer -->
  <path d="M102.35 129.534C89.2303 130.867 90.3636 124.523 90.0263 107.634C90.0103 85.3004 89.9756 59.5671 90.0823 47.7911C90.1623 38.9537 93.0236 35.3191 101.786 33.5017C152.609 22.9577 203.45 12.4991 254.301 2.08973C262.278 0.455063 266.176 3.55239 266.212 11.7631C266.336 40.4284 266.329 69.0951 266.214 97.7604C266.182 105.974 262.172 110.28 254.473 111.227C229.14 114.344 110.294 128.59 102.35 129.534Z" fill="#E1E3EB"/>

  <!-- Main body -->
  <path d="M178.471 120.573C178.402 166.089 178.21 211.605 178.342 257.121C178.379 269.505 177.573 273.907 161.058 273.966C141.475 274.035 122.003 274.047 102.463 274.035C93.014 274.029 90.1007 271.265 90.0727 261.781C89.9993 236.467 89.6047 211.115 89.9593 185.806C89.994 183.278 89.9633 180.238 89.9593 179.025V178.858C89.4073 178.891 85.5167 179.21 83.0113 179.442C82.6247 179.478 82.2367 179.514 81.85 179.55C59.4913 181.615 37.0953 183.285 14.7207 185.183C5.10866 185.998 2.26999 183.51 2.26333 173.797C2.25133 152.703 2.25399 131.607 2.26333 110.514C2.26733 100.573 5.10467 97.3248 15.318 95.6635C38.2927 91.9261 140.458 75.0248 165.617 70.7928C174.633 69.2768 178.327 72.0875 178.378 81.4195C178.449 94.4702 178.443 107.522 178.471 120.573Z" fill="#969CA8"/>

  <!-- Overlap -->
  <path d="M102.35 129.534C89.2303 130.867 90.3636 124.523 90.0263 107.634C90.0103 85.3004 89.9756 59.5671 90.0823 47.7911C90.1623 38.9537 93.0236 35.3191 101.786 33.5017C152.609 22.9577 203.45 12.4991 254.301 2.08973C262.278 0.455063 266.176 3.55239 266.212 11.7631C266.336 40.4284 266.329 69.0951 266.214 97.7604C266.182 105.974 262.172 110.28 254.473 111.227C229.14 114.344 110.294 128.59 102.35 129.534Z" fill="#62666F" clip-path="url(#tivero-dark-body-clip)"/>
</svg>
